<svg width="24" height="24" viewBox="0 0 24 24" fill="none" xmlns="http://www.w3.org/2000/svg">
<g clip-path="url(#clip0_501_8474)">
<path d="M24 12.0735C24 5.40454 18.627 -0.00146484 12 -0.00146484C5.37 3.51563e-05 -0.00300026 5.40454 -0.00300026 12.075C-0.00300026 18.1005 4.386 23.0955 10.122 24.0015V15.564H7.077V12.075H10.125V9.41254C10.125 6.38704 11.9175 4.71604 14.658 4.71604C15.972 4.71604 17.3445 4.95154 17.3445 4.95154V7.92154H15.831C14.3415 7.92154 13.8765 8.85304 13.8765 9.80854V12.0735H17.2035L16.6725 15.5625H13.875V24C19.611 23.094 24 18.099 24 12.0735Z" fill="white"/>
</g>
<defs>
<clipPath id="clip0_501_8474">
<rect width="24" height="24" fill="white"/>
</clipPath>
</defs>
</svg>
