<svg width="25" height="18" viewBox="0 0 25 18" fill="none" xmlns="http://www.w3.org/2000/svg">
<path d="M12.7432 0.998535H12.8767C14.1097 1.00304 20.3572 1.04804 22.0417 1.50104C22.5509 1.63929 23.0149 1.90877 23.3874 2.28255C23.7599 2.65633 24.0277 3.12131 24.1642 3.63104C24.3157 4.20104 24.4222 4.95554 24.4942 5.73404L24.5092 5.89004L24.5422 6.28004L24.5542 6.43604C24.6517 7.80704 24.6637 9.09104 24.6652 9.37154V9.48404C24.6637 9.77504 24.6502 11.146 24.5422 12.574L24.5302 12.7315L24.5167 12.8875C24.4417 13.7455 24.3307 14.5975 24.1642 15.2245C24.0281 15.7345 23.7604 16.1997 23.3879 16.5735C23.0154 16.9474 22.5511 17.2167 22.0417 17.3545C20.3017 17.8225 13.6882 17.8555 12.7717 17.857H12.5587C12.0952 17.857 10.1782 17.848 8.16817 17.779L7.91317 17.77L7.78267 17.764L7.52617 17.7535L7.26967 17.743C5.60467 17.6695 4.01917 17.551 3.28867 17.353C2.77941 17.2153 2.31527 16.9462 1.94276 16.5726C1.57025 16.1991 1.30244 15.7342 1.16617 15.2245C0.999672 14.599 0.888672 13.7455 0.813672 12.8875L0.801672 12.73L0.789672 12.574C0.715643 11.5576 0.674622 10.5391 0.666672 9.52004L0.666672 9.33554C0.669672 9.01304 0.681672 7.89854 0.762672 6.66854L0.773172 6.51404L0.777672 6.43604L0.789672 6.28004L0.822672 5.89004L0.837672 5.73404C0.909672 4.95554 1.01617 4.19954 1.16767 3.63104C1.30371 3.12111 1.57142 2.6559 1.94394 2.28206C2.31647 1.90822 2.78073 1.63887 3.29017 1.50104C4.02067 1.30604 5.60617 1.18604 7.27117 1.11104L7.52617 1.10054L7.78417 1.09154L7.91317 1.08704L8.16967 1.07654C9.59723 1.0306 11.0254 1.00509 12.4537 1.00004H12.7432V0.998535ZM10.2667 5.81354V13.0405L16.5022 9.42854L10.2667 5.81354Z" fill="white"/>
</svg>
